<svg width="22.968750" height="22.968750" viewBox="0 0 22.9688 22.9688" fill="none" xmlns="http://www.w3.org/2000/svg" xmlns:xlink="http://www.w3.org/1999/xlink">
	<desc>
			Created with Pixso.
	</desc>
	<defs/>
	<path id="Vector" d="M19.6 3.36C17.43 1.19 14.55 0 11.48 0C8.41 0 5.53 1.19 3.36 3.36C1.19 5.53 0 8.41 0 11.48C0 14.55 1.19 17.43 3.36 19.6C5.53 21.76 8.41 22.96 11.48 22.96C14.55 22.96 17.43 21.77 19.6 19.6C21.76 17.43 22.96 14.55 22.96 11.48C22.96 8.41 21.77 5.53 19.6 3.36ZM21.92 10.96L17.47 10.96C17.43 9.19 17.18 7.49 16.74 5.97C17.59 5.54 18.38 4.99 19.11 4.34C20.75 6.09 21.8 8.41 21.92 10.96ZM12 12L16.44 12C16.41 13.63 16.18 15.19 15.79 16.58C14.59 16.1 13.31 15.82 12 15.76L12 12ZM18.37 3.62C17.77 4.15 17.11 4.6 16.42 4.98C16.24 4.48 16.04 4.01 15.82 3.57C15.37 2.69 14.86 1.97 14.31 1.42C15.83 1.84 17.21 2.61 18.37 3.62ZM12 1.19C13.07 1.42 14.08 2.41 14.9 4.03C15.12 4.46 15.31 4.93 15.49 5.42C14.39 5.87 13.21 6.14 12 6.2L12 1.19ZM15.8 6.41C16.18 7.8 16.4 9.35 16.44 10.97L12 10.97L12 7.24C13.32 7.18 14.6 6.89 15.8 6.41ZM10.96 10.96L6.52 10.96C6.55 9.34 6.77 7.79 7.16 6.4C8.36 6.89 9.64 7.17 10.96 7.23L10.96 10.96L10.96 10.96ZM10.97 1.19L10.97 6.2C9.75 6.14 8.57 5.87 7.48 5.42C7.65 4.93 7.85 4.46 8.07 4.03C8.88 2.41 9.89 1.42 10.97 1.19ZM8.66 1.42C8.1 1.97 7.59 2.69 7.15 3.57C6.93 4.01 6.73 4.48 6.54 4.98C5.85 4.6 5.2 4.15 4.59 3.62C5.75 2.61 7.13 1.84 8.66 1.42ZM3.85 4.34C4.58 4.99 5.37 5.53 6.22 5.97C5.78 7.49 5.53 9.19 5.49 10.96L1.04 10.96C1.17 8.41 2.21 6.09 3.85 4.34ZM1.04 12L5.49 12C5.54 13.78 5.79 15.49 6.23 17.02C5.39 17.45 4.59 17.99 3.87 18.64C2.22 16.88 1.17 14.56 1.04 12ZM4.61 19.35C5.21 18.83 5.86 18.38 6.55 18.01C6.73 18.49 6.93 18.96 7.15 19.39C7.59 20.27 8.1 20.99 8.66 21.55C7.14 21.12 5.77 20.36 4.61 19.35ZM10.97 21.77C9.89 21.53 8.88 20.55 8.07 18.93C7.85 18.51 7.66 18.05 7.49 17.57C8.58 17.11 9.76 16.85 10.97 16.79L10.97 21.77ZM7.17 16.58C6.78 15.19 6.56 13.63 6.52 12L10.97 12L10.97 15.76C9.65 15.82 8.37 16.1 7.17 16.58ZM12 21.77L12 16.79C13.21 16.85 14.39 17.11 15.48 17.57C15.31 18.05 15.12 18.51 14.9 18.93C14.09 20.55 13.07 21.53 12 21.77ZM14.31 21.54C14.87 20.99 15.37 20.26 15.82 19.38C16.04 18.95 16.24 18.49 16.42 18C17.1 18.37 17.76 18.82 18.36 19.35C17.2 20.36 15.82 21.12 14.31 21.54ZM19.1 18.64C18.38 18 17.59 17.45 16.74 17.02C17.18 15.49 17.44 13.78 17.48 12L21.93 12C21.8 14.56 20.75 16.88 19.1 18.64Z" fill="#FFFFFF" fill-opacity="1.000000" fill-rule="nonzero"/>
</svg>
